<svg id="svg" version="1.1" xmlns="http://www.w3.org/2000/svg" xmlns:xlink="http://www.w3.org/1999/xlink" width="400" height="388.6178861788618" viewBox="0, 0, 400,388.6178861788618"><g id="svgg"><path id="path0" d="M191.309 2.974 C 185.686 9.187,189.505 19.512,197.425 19.512 C 205.402 19.512,209.535 8.125,203.531 2.691 C 199.629 -0.839,194.656 -0.724,191.309 2.974 M288.237 10.163 C 283.186 16.613,273.055 36.292,274.225 37.379 C 277.638 40.551,293.873 48.674,294.849 47.698 C 297.344 45.204,295.550 42.268,289.431 38.829 C 282.643 35.014,282.287 34.454,283.930 30.171 C 284.804 27.894,285.878 28.110,292.257 31.848 C 298.169 35.313,299.851 35.713,300.985 33.924 C 303.146 30.512,302.890 30.120,295.935 26.212 C 288.987 22.307,288.360 21.234,291.305 18.288 C 292.720 16.873,294.900 17.422,300.200 20.528 C 307.054 24.545,310.569 24.571,310.569 20.605 C 310.569 16.414,290.639 7.095,288.237 10.163 M93.496 14.736 C 89.024 17.386,85.599 20.426,85.884 21.494 C 87.127 26.148,101.776 48.780,103.545 48.780 C 106.965 48.780,107.525 45.768,105.009 40.904 C 101.264 33.661,106.129 31.767,115.730 36.732 C 120.220 39.054,120.983 39.063,123.220 36.826 C 125.457 34.590,125.136 34.062,120.070 31.646 C 115.235 29.340,114.527 28.295,115.111 24.320 C 116.973 11.631,106.544 7.006,93.496 14.736 M107.453 19.766 C 109.388 23.382,104.641 29.141,99.651 29.232 C 97.824 29.266,93.372 22.986,94.584 22.086 C 103.532 15.438,104.995 15.174,107.453 19.766 M311.892 40.719 C 300.069 53.906,299.533 54.895,303.403 56.380 C 305.539 57.200,308.448 55.040,314.899 47.845 L 323.535 38.211 318.829 52.297 L 314.123 66.383 318.059 70.081 C 320.377 72.259,322.527 73.152,323.291 72.255 C 324.004 71.417,329.252 65.772,334.954 59.710 C 344.281 49.792,345.069 48.437,342.819 46.188 C 340.570 43.938,339.403 44.635,331.178 53.144 L 322.037 62.602 326.379 49.262 C 330.618 36.242,330.650 35.844,327.711 32.596 C 323.468 27.907,323.301 27.993,311.892 40.719 M61.228 38.746 C 57.586 42.769,57.567 42.669,65.276 59.805 C 72.309 75.440,75.610 77.970,75.610 67.728 C 75.610 60.294,83.348 52.899,88.334 55.568 C 91.570 57.299,95.935 56.313,95.935 53.850 C 95.935 52.587,66.775 35.772,64.585 35.772 C 64.219 35.772,62.708 37.110,61.228 38.746 M72.265 47.315 C 79.059 51.324,78.860 50.794,74.907 54.371 C 71.872 57.118,71.651 56.990,68.370 50.558 C 64.444 42.863,64.558 42.768,72.265 47.315 M181.992 60.155 C 166.668 75.816,164.199 90.046,173.290 110.302 C 177.494 119.670,181.688 125.427,198.950 145.527 C 232.593 184.703,245.970 217.263,243.461 253.869 C 242.437 268.811,243.369 269.466,252.300 260.078 C 265.683 246.009,272.517 224.585,270.945 201.626 C 268.785 170.069,259.191 152.141,221.274 108.803 C 201.468 86.166,196.235 76.594,195.378 61.434 C 194.618 47.981,193.966 47.919,181.992 60.155 M341.005 70.839 C 334.103 75.817,328.455 80.270,328.455 80.735 C 328.455 82.938,340.885 99.151,342.587 99.168 C 346.651 99.208,346.343 95.710,341.685 88.939 C 337.070 82.233,336.990 81.830,339.908 80.008 C 342.950 78.108,343.731 78.793,352.412 90.960 C 352.693 91.354,354.008 90.591,355.335 89.264 C 357.467 87.132,357.192 86.096,352.958 80.340 C 348.365 74.094,348.296 73.748,351.259 71.897 C 353.981 70.197,354.960 70.855,359.477 77.420 C 364.031 84.041,364.876 84.601,367.040 82.437 C 369.204 80.274,368.774 78.991,363.193 70.957 C 355.469 59.837,356.255 59.841,341.005 70.839 M30.217 75.842 C 29.653 77.312,29.392 78.640,29.637 78.794 C 29.881 78.948,35.203 82.727,41.463 87.191 C 47.724 91.654,53.722 95.834,54.794 96.478 C 58.302 98.586,70.811 79.870,67.864 76.924 C 65.736 74.795,64.909 75.285,60.776 81.125 C 55.042 89.227,56.331 89.276,44.253 80.488 C 33.152 72.410,31.717 71.935,30.217 75.842 M139.813 97.390 C 116.921 121.455,120.707 147.154,152.026 180.290 C 201.811 232.965,216.290 275.988,195.511 309.503 C 190.660 317.328,191.467 318.174,199.751 313.948 C 231.012 298.000,240.704 246.004,220.338 203.508 C 211.843 185.782,203.172 174.066,182.243 152.035 C 160.421 129.065,151.585 114.762,150.054 99.932 C 148.964 89.370,147.733 89.065,139.813 97.390 M17.287 97.967 C 8.572 111.826,9.766 117.380,22.870 123.929 C 38.312 131.646,49.581 125.028,48.389 108.943 C 47.614 98.474,22.533 89.624,17.287 97.967 M361.061 100.656 C 346.875 107.006,345.430 108.233,347.778 111.942 C 348.922 113.748,350.033 113.678,354.175 111.535 C 361.720 107.634,363.762 112.138,358.234 120.491 C 354.849 125.605,354.516 127.127,356.124 130.131 C 358.010 133.655,358.076 133.631,361.537 128.231 C 364.485 123.631,365.862 122.844,370.222 123.266 C 383.987 124.599,388.033 117.180,381.360 102.846 C 376.677 92.787,378.261 92.958,361.061 100.656 M35.842 104.913 L 43.933 109.013 40.633 115.482 C 38.817 119.040,36.591 121.951,35.685 121.951 C 33.834 121.951,17.886 114.092,17.886 113.179 C 17.886 102.598,24.901 99.369,35.842 104.913 M376.626 108.366 C 378.662 113.238,378.719 114.536,376.950 115.658 C 373.388 117.916,369.536 117.251,368.667 114.228 C 368.217 112.663,367.370 110.227,366.784 108.815 C 365.899 106.681,369.377 103.512,373.660 102.549 C 373.929 102.489,375.264 105.106,376.626 108.366 M372.358 135.295 C 362.683 137.429,360.976 139.079,360.976 146.298 C 360.976 160.617,365.534 165.392,377.304 163.403 C 383.921 162.285,385.437 159.159,382.753 152.166 C 381.159 148.012,375.576 148.911,376.035 153.247 C 376.666 159.193,369.520 159.295,368.214 153.358 C 367.661 150.840,366.917 147.842,366.562 146.696 C 365.796 144.224,370.678 142.158,380.918 140.623 L 388.369 139.505 389.451 146.720 C 390.782 155.601,392.446 158.474,395.563 157.278 C 397.552 156.515,397.678 154.890,396.309 147.692 C 393.578 133.328,389.902 131.426,372.358 135.295 M2.744 137.190 C -2.734 151.465,0.813 159.843,11.988 159.027 C 18.481 158.553,18.757 158.298,20.463 151.220 C 22.064 144.574,30.819 139.251,29.823 145.528 C 27.167 162.274,27.180 162.602,30.497 162.602 C 36.183 162.602,38.058 141.175,32.627 138.269 C 23.833 133.562,16.764 137.098,15.156 147.009 C 14.365 151.884,13.544 152.846,10.175 152.846 C 6.050 152.846,5.798 149.180,9.139 137.805 C 10.163 134.320,4.070 133.735,2.744 137.190 M386.662 174.770 C 381.563 177.818,374.794 180.798,371.622 181.394 C 364.786 182.676,363.680 186.992,370.186 186.992 C 372.570 186.992,379.852 189.919,386.370 193.496 C 400.102 201.032,400.000 201.008,400.000 196.781 C 400.000 194.613,397.296 192.017,391.721 188.833 L 383.442 184.105 391.721 179.599 C 397.046 176.701,400.000 174.025,400.000 172.099 C 400.000 167.880,397.279 168.425,386.662 174.770 M127.518 192.775 C 120.566 229.832,141.187 285.080,169.756 305.939 C 178.125 312.049,178.387 311.959,181.128 302.033 C 190.584 267.777,180.133 235.716,149.405 204.722 C 131.110 186.270,128.958 185.095,127.518 192.775 M27.967 252.358 C 24.491 255.834,25.600 264.693,29.862 267.485 C 38.955 273.444,49.056 260.671,41.347 252.962 C 38.323 249.938,30.730 249.595,27.967 252.358 M355.401 252.962 C 347.692 260.671,357.793 273.444,366.886 267.485 C 371.148 264.693,372.257 255.834,368.780 252.358 C 366.018 249.595,358.425 249.938,355.401 252.962 M306.097 315.259 C 292.608 327.589,302.724 342.508,317.681 332.344 C 328.114 325.255,331.686 330.791,322.211 339.365 C 317.340 343.774,315.816 346.161,316.857 347.750 C 318.599 350.410,320.979 349.261,329.124 341.830 C 342.085 330.006,328.395 314.871,314.963 326.174 C 310.153 330.221,309.851 330.272,307.728 327.394 C 305.748 324.708,306.152 323.851,311.543 319.303 C 315.624 315.859,317.246 313.364,316.561 311.579 C 315.097 307.765,313.795 308.222,306.097 315.259 M71.975 323.138 C 62.844 334.453,62.086 335.949,64.356 338.177 C 66.616 340.395,67.213 340.239,70.140 336.667 C 72.431 333.873,74.029 333.145,75.499 334.228 C 87.791 343.292,91.215 343.301,97.296 334.288 C 102.142 327.104,101.103 323.879,91.549 316.436 C 82.072 309.052,83.824 308.452,71.975 323.138 M90.268 323.999 L 94.539 327.672 90.765 331.188 L 86.992 334.703 82.192 330.850 C 77.481 327.068,77.448 326.936,80.412 323.661 C 84.211 319.463,85.028 319.491,90.268 323.999 M278.455 334.550 C 273.760 336.934,269.919 339.585,269.919 340.441 C 269.919 343.690,285.229 369.106,287.187 369.106 C 290.747 369.106,291.278 366.119,288.627 360.994 C 285.266 354.495,288.717 352.753,297.067 356.735 C 302.722 359.432,308.943 358.996,308.943 355.903 C 308.943 355.023,306.773 353.546,304.120 352.621 C 299.957 351.170,299.325 350.170,299.508 345.320 C 300.000 332.222,291.552 327.900,278.455 334.550 M101.220 344.415 C 94.736 350.425,89.431 356.243,89.431 357.346 C 89.431 360.151,95.121 359.850,97.557 356.916 C 100.846 352.952,112.195 360.039,112.195 366.057 C 112.195 379.782,117.607 372.677,120.139 355.628 C 121.229 348.285,122.460 341.118,122.873 339.703 C 123.542 337.410,117.666 333.172,114.151 333.411 C 113.522 333.454,107.703 338.406,101.220 344.415 M292.701 341.498 C 294.092 344.097,293.576 345.011,289.539 347.099 C 283.163 350.395,282.103 350.264,280.133 345.935 C 277.015 339.084,289.122 334.810,292.701 341.498 M114.756 348.705 C 113.543 355.168,113.408 355.256,108.965 352.482 C 105.865 350.546,105.895 350.371,110.088 345.995 C 115.274 340.582,116.181 341.108,114.756 348.705 M250.407 346.599 C 244.593 348.430,239.663 350.088,239.449 350.284 C 239.002 350.695,248.924 380.938,249.860 382.015 C 251.580 383.996,273.369 375.220,272.481 372.904 C 271.966 371.563,271.545 370.240,271.545 369.964 C 271.545 369.688,267.797 370.561,263.216 371.903 C 256.225 373.953,254.662 373.989,253.486 372.132 C 251.256 368.608,252.594 367.031,259.445 365.108 C 263.179 364.061,265.854 362.314,265.854 360.924 C 265.854 358.348,260.778 357.980,253.473 360.027 C 244.466 362.549,246.323 355.009,255.456 351.976 C 261.302 350.034,263.415 348.503,263.415 346.211 C 263.415 342.450,263.606 342.444,250.407 346.599 M135.811 353.948 C 134.327 359.155,132.308 366.182,131.324 369.564 C 130.042 373.971,130.033 376.212,131.293 377.471 C 133.769 379.948,136.160 377.995,137.364 372.515 C 138.944 365.319,144.333 367.627,146.711 376.519 C 147.971 381.231,149.656 383.802,151.863 384.379 C 156.356 385.554,156.462 385.180,153.783 377.588 C 151.509 371.142,151.547 370.914,154.984 370.424 C 166.296 368.813,162.934 351.292,150.722 348.217 C 146.755 347.218,142.384 345.969,141.009 345.441 C 139.092 344.705,137.882 346.685,135.811 353.948 M152.282 355.215 C 155.640 356.176,155.646 365.494,152.289 364.809 C 151.665 364.682,148.654 364.108,145.599 363.535 C 140.232 362.528,140.102 362.329,141.745 357.616 C 142.912 354.267,144.280 352.970,146.113 353.476 C 147.580 353.882,150.356 354.664,152.282 355.215 M167.480 355.895 C 167.480 358.372,168.736 359.265,172.764 359.653 C 175.671 359.933,177.956 360.894,177.844 361.789 C 175.353 381.527,175.570 388.618,178.665 388.618 C 181.417 388.618,181.998 387.110,182.895 377.642 C 183.467 371.606,184.083 365.569,184.263 364.228 C 184.455 362.795,186.878 361.453,190.133 360.976 C 198.731 359.715,198.150 356.479,189.122 355.338 C 166.143 352.434,167.480 352.400,167.480 355.895 M225.175 360.569 C 225.716 364.817,226.526 370.671,226.974 373.577 C 228.146 381.174,227.216 380.317,219.331 366.536 C 212.697 354.942,206.117 351.046,202.413 356.521 C 200.272 359.685,205.781 388.618,208.524 388.618 C 211.578 388.618,211.700 387.894,210.642 376.016 C 209.386 361.906,209.724 362.007,218.844 378.454 C 223.102 386.131,224.129 386.989,229.072 386.990 L 234.567 386.992 233.472 375.203 C 231.653 355.609,230.898 352.846,227.362 352.846 C 224.525 352.846,224.295 353.659,225.175 360.569 " stroke="none" fill="#000000" fill-rule="evenodd"></path></g></svg>